<?xml version="1.0" encoding="UTF-8" standalone="no"?>
<!DOCTYPE svg PUBLIC "-//W3C//DTD SVG 1.1//EN"
 "http://www.w3.org/Graphics/SVG/1.1/DTD/svg11.dtd">
<!-- Generated by graphviz version 2.40.1 (20161225.0304)
 -->
<!-- Pages: 1 -->
<svg width="561pt" height="116pt"
 viewBox="0.00 0.00 560.50 116.00" xmlns="http://www.w3.org/2000/svg" xmlns:xlink="http://www.w3.org/1999/xlink">
<g id="graph0" class="graph" transform="scale(1 1) rotate(0) translate(4 112)">
<polygon fill="#ffffff" stroke="transparent" points="-4,4 -4,-112 556.5,-112 556.5,4 -4,4"/>
<!-- city -->
<g id="node1" class="node">
<title>city</title>
<ellipse fill="none" stroke="#000000" cx="27" cy="-90" rx="27" ry="18"/>
<text text-anchor="middle" x="27" y="-85.8" font-family="Times,serif" font-size="14.00" fill="#000000">city</text>
</g>
<!-- ./models/example/b.sql -->
<g id="node2" class="node">
<title>./models/example/b.sql</title>
<ellipse fill="none" stroke="#000000" cx="119" cy="-18" rx="92.2843" ry="18"/>
<text text-anchor="middle" x="119" y="-13.8" font-family="Times,serif" font-size="14.00" fill="#000000">./models/example/b.sql</text>
</g>
<!-- city&#45;&gt;./models/example/b.sql -->
<g id="edge1" class="edge">
<title>city&#45;&gt;./models/example/b.sql</title>
<path fill="none" stroke="#000000" d="M44.7385,-76.1177C57.0474,-66.4846 73.7642,-53.402 88.2206,-42.0883"/>
<polygon fill="#000000" stroke="#000000" points="90.7027,-44.5902 96.4206,-35.6708 86.3885,-39.0776 90.7027,-44.5902"/>
</g>
<!-- generate_series(1,100 -->
<g id="node3" class="node">
<title>generate_series(1,100</title>
<ellipse fill="none" stroke="#000000" cx="160" cy="-90" rx="87.5" ry="18"/>
<text text-anchor="middle" x="160" y="-85.8" font-family="Times,serif" font-size="14.00" fill="#000000">generate_series(1,100</text>
</g>
<!-- generate_series(1,100&#45;&gt;./models/example/b.sql -->
<g id="edge2" class="edge">
<title>generate_series(1,100&#45;&gt;./models/example/b.sql</title>
<path fill="none" stroke="#000000" d="M149.654,-71.8314C145.0058,-63.6688 139.426,-53.87 134.3082,-44.8827"/>
<polygon fill="#000000" stroke="#000000" points="137.1906,-42.8713 129.2007,-35.9134 131.1077,-46.3352 137.1906,-42.8713"/>
</g>
<!-- generate_series(1,10 -->
<g id="node4" class="node">
<title>generate_series(1,10</title>
<ellipse fill="none" stroke="#000000" cx="377" cy="-90" rx="83.0618" ry="18"/>
<text text-anchor="middle" x="377" y="-85.8" font-family="Times,serif" font-size="14.00" fill="#000000">generate_series(1,10</text>
</g>
<!-- ./models/example/long_running.sql -->
<g id="node5" class="node">
<title>./models/example/long_running.sql</title>
<ellipse fill="none" stroke="#000000" cx="417" cy="-18" rx="135.5" ry="18"/>
<text text-anchor="middle" x="417" y="-13.8" font-family="Times,serif" font-size="14.00" fill="#000000">./models/example/long_running.sql</text>
</g>
<!-- generate_series(1,10&#45;&gt;./models/example/long_running.sql -->
<g id="edge3" class="edge">
<title>generate_series(1,10&#45;&gt;./models/example/long_running.sql</title>
<path fill="none" stroke="#000000" d="M387.0937,-71.8314C391.5597,-63.7925 396.9075,-54.1666 401.8379,-45.2918"/>
<polygon fill="#000000" stroke="#000000" points="404.9735,-46.8546 406.7704,-36.4133 398.8544,-43.4551 404.9735,-46.8546"/>
</g>
<!-- actor -->
<g id="node6" class="node">
<title>actor</title>
<ellipse fill="none" stroke="#000000" cx="506" cy="-90" rx="28" ry="18"/>
<text text-anchor="middle" x="506" y="-85.8" font-family="Times,serif" font-size="14.00" fill="#000000">actor</text>
</g>
<!-- actor&#45;&gt;./models/example/long_running.sql -->
<g id="edge4" class="edge">
<title>actor&#45;&gt;./models/example/long_running.sql</title>
<path fill="none" stroke="#000000" d="M488.4165,-75.7751C476.5591,-66.1827 460.6178,-53.2863 446.8045,-42.1115"/>
<polygon fill="#000000" stroke="#000000" points="448.9401,-39.3373 438.9643,-35.7689 444.5375,-44.7795 448.9401,-39.3373"/>
</g>
</g>
</svg>
